<?xml version="1.0" encoding="iso-8859-1"?>
<!-- Generator: Adobe Illustrator 18.0.0, SVG Export Plug-In . SVG Version: 6.00 Build 0)  -->
<!DOCTYPE svg PUBLIC "-//W3C//DTD SVG 1.1//EN" "http://www.w3.org/Graphics/SVG/1.1/DTD/svg11.dtd">
<svg xmlns="http://www.w3.org/2000/svg" xmlns:xlink="http://www.w3.org/1999/xlink" version="1.1" id="Capa_1" x="0px" y="0px" viewBox="0 0 429.361 429.361" style="enable-background:new 0 0 429.361 429.361;" xml:space="preserve" width="512px" height="512px">
<g>
	<path d="M425.262,69.661C313.799,35.923,194.333,28.778,79.45,48.906l-4.911-11.632c-0.812-1.922-2.641-3.22-4.724-3.35   L40.481,32.09L30.085,16.419c-0.324-0.489-0.708-0.944-1.17-1.305c-2.016-1.577-4.674-1.553-6.598-0.207L2.512,28.771   c-2.353,1.647-3.251,4.839-1.835,7.338c1.625,2.867,5.315,3.654,7.948,1.81l15.38-10.766l8.821,13.297   c0.952,1.435,2.521,2.341,4.24,2.449l28.663,1.792l6.325,14.98L50.69,71.063l-13.303-8.314c-1.295-0.81-2.87-1.042-4.345-0.647   L7.268,69.041c-2.773,0.747-4.704,3.441-4.223,6.273c0.551,3.249,3.751,5.247,6.856,4.41l23.687-6.377l13.968,8.73   c0.89,0.556,1.901,0.836,2.915,0.836c0.888,0,1.778-0.215,2.588-0.647L76.35,69.845l5.996,14.201l-6.651,11.639   c-0.573,1.003-0.816,2.162-0.693,3.311l7.531,70.599l-13.705,4.568c-0.793,0.264-1.543,0.671-2.144,1.252   c-1.793,1.735-2.171,4.305-1.165,6.389l11.742,24.323l-13.46,7.478c-2.005,1.114-3.108,3.355-2.768,5.624l11.102,74.012   c-7.07-0.893-14.14,0.77-20.111,4.783c-6.429,4.322-10.825,10.851-12.412,18.417c-0.61,2.908,0.969,5.951,3.832,6.745   c3.132,0.869,6.271-1.116,6.883-4.238c0.95-4.85,3.732-9.038,7.833-11.795c4.101-2.756,9.03-3.754,13.879-2.801   c8.853,1.735,15.129,9.523,14.934,18.525c-0.019,0.881,0.12,1.769,0.52,2.554c1.371,2.691,4.339,3.705,6.874,2.776   c2.501-0.918,5.188-1.137,7.766-0.631c3.573,0.7,6.733,2.72,8.9,5.687c1.023,1.4,2.628,2.255,4.362,2.255h0.076   c1.736,0,3.39-0.785,4.392-2.184c5.349-7.468,14.643-11.156,23.636-9.392c6.77,1.327,12.593,5.548,15.976,11.58   c0.966,1.723,2.773,2.803,4.749,2.803h0.044c1.936,0,3.755-1.002,4.722-2.679c3.1-5.37,9.274-8.185,15.336-6.992   c3.775,0.74,7.04,2.896,9.201,6.075c1.569,2.308,2.332,5.074,2.407,7.865c0.05,1.862,0.007,2.812-0.593,4.678   c-0.559,1.737-0.368,3.683,0.715,5.151c1.641,2.225,4.568,2.858,6.923,1.671c3.799-1.915,8.013-2.494,12.189-1.676   c5.992,1.174,11.073,5.188,13.622,10.75c0.377,0.823,0.884,1.594,1.591,2.157c2.099,1.672,4.902,1.599,6.853,0.094   c3.317-2.56,7.559-3.569,11.64-2.768c7.774,1.524,12.884,9.033,11.481,16.802c-0.506,2.803,0.985,5.682,3.707,6.522   c0.555,0.171,1.112,0.252,1.656,0.252c2.577,0,4.877-1.819,5.392-4.443c1.588-8.103-0.873-16.075-5.967-21.826v-50.5l9.073-23.009   l14.442,8.606c0.856,0.51,1.829,0.775,2.815,0.775c0.27,0,0.541-0.02,0.81-0.06l46.767-6.965c2.84-0.423,5.068-2.876,4.918-5.743   c-0.172-3.292-3.124-5.648-6.304-5.171l-45.06,6.711l-27.016-17.577l7.857-49.83l19.304-8.775c2.177-0.99,3.465-3.273,3.186-5.648   l-1.18-10.045l44.387-26.875l22.939-0.957l15.603,9.178c0.86,0.506,1.824,0.759,2.789,0.759c0.952,0,1.903-0.247,2.756-0.74   l18.794-10.881c2.486-1.439,3.654-4.542,2.458-7.153c-1.372-2.997-4.98-4.099-7.764-2.486l-16.222,9.392l-14.233-8.373   c-0.912-0.537-1.957-0.8-3.018-0.754l-21.284,0.888l-0.433-2.134l23.379-18.905c1.53-1.237,2.283-3.198,1.974-5.141l-2.532-15.927   c10.268-1.165,33.91-2.01,52.795,11.177c2.332,1.628,5.603,1.389,7.469-0.758c2.176-2.502,1.668-6.264-0.973-8.122   c-28.638-20.152-65.203-12.614-66.745-12.284c-2.858,0.613-4.738,3.354-4.279,6.242l2.903,18.258l-23.502,19.005   c-1.595,1.29-2.339,3.36-1.932,5.371l1.26,6.208l-45.311,27.434c-1.843,1.116-2.865,3.206-2.614,5.346l1.124,9.573l-18.345,8.339   c-1.683,0.765-2.869,2.324-3.157,4.15l-8.831,56c-0.315,1.999,0.493,4.009,2.103,5.234l8.516,6.479l-10.303,26.126   c-0.253,0.642-0.383,1.326-0.383,2.017v44.28c-1.02-0.339-2.069-0.625-3.152-0.837c-5.136-1.007-10.415-0.39-15.135,1.685   c-4.415-6.126-11.035-10.441-18.57-11.918c-3.443-0.675-6.905-0.749-10.278-0.233c-0.256-4.51-1.718-8.885-4.304-12.732   c-2.911-4.33-6.982-7.588-11.731-9.467v-54.74c0-2.873-2.1-5.438-4.96-5.71c-3.28-0.313-6.04,2.258-6.04,5.474v53.229   c-5.713,0.358-11.147,2.627-15.402,6.426c-4.95-5.483-11.567-9.274-18.952-10.722c-1.213-0.238-2.43-0.396-3.646-0.501v-64.996   c0-2.873-2.1-5.438-4.96-5.71c-3.28-0.313-6.04,2.258-6.04,5.474v66.06c-5.826,1.4-11.254,4.291-15.673,8.451   c-0.442-0.356-0.898-0.693-1.362-1.019V261.65c0-2.873-2.1-5.438-4.96-5.71c-3.28-0.313-6.04,2.258-6.04,5.474v55.156   c-1.853-0.262-3.725-0.329-5.584-0.178c-1.673-7.987-6.596-14.858-13.48-19.054l-11.395-75.968l14.666-8.148   c2.548-1.416,3.549-4.573,2.282-7.198l-11.281-23.369l12.067-4.022c2.452-0.817,4.004-3.231,3.73-5.801l-7.812-73.232l7.118-12.456   c0.851-1.489,0.958-3.288,0.292-4.868l-9.697-22.966c6.352-1.09,12.717-2.095,19.095-3.016v158.885c0,2.873,2.1,5.438,4.96,5.71   c3.28,0.313,6.04-2.258,6.04-5.474V54.788c5.671-0.731,11.349-1.415,17.035-2.014v162.402c0,2.873,2.1,5.438,4.96,5.71   c3.28,0.313,6.04-2.258,6.04-5.474V51.699c5.994-0.54,11.995-0.989,18-1.382v213.86c0,2.873,2.1,5.438,4.96,5.71   c3.28,0.313,6.04-2.258,6.04-5.474V49.679c2.999-0.152,5.999-0.283,9-0.398v63.896c0,2.873,2.1,5.438,4.96,5.71   c3.28,0.313,6.04-2.258,6.04-5.474V48.941c8.682-0.204,17.366-0.268,26.048-0.167c-4.776,4.626-7.721,11.09-7.721,18.167v30.236   c0,2.873,2.1,5.438,4.96,5.71c3.28,0.313,6.04-2.258,6.04-5.474V66.94c0-7.227,5.392-13.318,12.566-14.194h0   c15.428-1.884,31.017-2.104,46.489-0.623c48.426,4.639,96.379,14.024,142.913,28.123c0.532,0.161,1.068,0.238,1.597,0.238   c2.534,0,4.864-1.766,5.397-4.448C429.818,73.234,427.998,70.489,425.262,69.661z" fill="#FFFFFF"/>
	<path d="M102.936,236.413v8c0,3.038,2.462,5.5,5.5,5.5s5.5-2.462,5.5-5.5v-8c0-3.038-2.462-5.5-5.5-5.5   S102.936,233.376,102.936,236.413z" fill="#FFFFFF"/>
	<path d="M179.971,132.413v83c0,3.038,2.462,5.5,5.5,5.5s5.5-2.462,5.5-5.5v-83c0-3.038-2.462-5.5-5.5-5.5   S179.971,129.376,179.971,132.413z" fill="#FFFFFF"/>
	<path d="M294.968,59.609c0.108-3.036-2.265-5.584-5.3-5.693l-7.562-0.27c-5.316-0.184-10.361,1.741-14.193,5.438   s-5.941,8.666-5.941,13.99v106.338c0,3.038,2.462,5.5,5.5,5.5s5.5-2.462,5.5-5.5V73.075c0-2.312,0.916-4.469,2.58-6.074   c1.664-1.605,3.855-2.447,6.162-2.361l7.562,0.27C292.321,65.034,294.86,62.645,294.968,59.609z" fill="#FFFFFF"/>
	<path d="M295.471,172.913c3.038,0,5.5-2.462,5.5-5.5v-24c0-3.038-2.462-5.5-5.5-5.5s-5.5,2.462-5.5,5.5v24   C289.971,170.451,292.434,172.913,295.471,172.913z" fill="#FFFFFF"/>
	<path d="M355.71,73.089c0.926-2.893-0.669-5.989-3.562-6.915c-14.524-4.648-30.54-5.64-41.417-5.653c-0.009,0-0.018,0-0.027,0   c-5.543,0-10.751,2.153-14.668,6.065c-3.91,3.905-6.063,9.099-6.063,14.626v44.201c0,3.038,2.462,5.5,5.5,5.5s5.5-2.462,5.5-5.5   V81.212c0-2.586,1.007-5.016,2.836-6.843c1.839-1.837,4.288-2.848,6.896-2.848c0.004,0,0.008,0,0.013,0   c10.098,0.013,24.9,0.913,38.079,5.13C351.687,77.575,354.783,75.982,355.71,73.089z" fill="#FFFFFF"/>
	<path d="M310.971,97.413v56c0,3.038,2.462,5.5,5.5,5.5s5.5-2.462,5.5-5.5v-56c0-3.038-2.462-5.5-5.5-5.5   S310.971,94.375,310.971,97.413z" fill="#FFFFFF"/>
	<path d="M238.471,272.913c-3.038,0-5.5,2.462-5.5,5.5v63c0,3.038,2.462,5.5,5.5,5.5s5.5-2.462,5.5-5.5v-63   C243.971,275.376,241.509,272.913,238.471,272.913z" fill="#FFFFFF"/>
	<path d="M243.971,169.413c0-3.038-2.462-5.5-5.5-5.5s-5.5,2.462-5.5,5.5v26c0,3.038,2.462,5.5,5.5,5.5s5.5-2.462,5.5-5.5V169.413z" fill="#FFFFFF"/>
	<path d="M243.971,70.413c0-3.038-2.462-5.5-5.5-5.5s-5.5,2.462-5.5,5.5v79c0,3.038,2.462,5.5,5.5,5.5s5.5-2.462,5.5-5.5V70.413z" fill="#FFFFFF"/>
	<path d="M198.405,370.541c-10.5-2.059-21.142,1.352-28.49,8.675c-6.354-7.634-15.163-12.914-25.066-14.855   c-14.401-2.824-29.208,1.893-39.358,12.147c-4.196-3.727-9.317-6.285-14.902-7.379c-3.339-0.655-6.754-0.759-10.114-0.324   c-2.484-14.958-13.976-27.123-29.363-30.139c-2.985-0.585-5.871,1.359-6.456,4.339c-0.584,2.981,1.359,5.871,4.339,6.456   c12.451,2.44,21.271,13.405,20.973,26.072c-0.043,1.82,0.817,3.543,2.298,4.602c1.48,1.06,3.389,1.317,5.098,0.69   c3.575-1.314,7.416-1.626,11.107-0.901c5.111,1.001,9.631,3.889,12.729,8.129c1.036,1.418,2.686,2.256,4.441,2.256   c0.004,0,0.008,0,0.012,0c1.76-0.004,3.412-0.85,4.443-2.276c7.42-10.254,20.232-15.31,32.636-12.877   c9.371,1.837,17.433,7.679,22.119,16.027c0.966,1.721,2.779,2.792,4.752,2.808c1.994-0.012,3.803-1.027,4.796-2.731   c4.445-7.631,13.243-11.621,21.889-9.923c11.22,2.199,18.559,13.117,16.359,24.335c-0.149,0.76-0.37,1.57-0.693,2.549   c-0.954,2.884,0.611,5.995,3.495,6.948c0.573,0.19,1.155,0.28,1.728,0.28c2.308,0,4.457-1.464,5.221-3.775   c0.472-1.426,0.804-2.66,1.044-3.884C226.808,390.616,215.576,373.907,198.405,370.541z" fill="#FFFFFF"/>
	<path d="M341.487,134.913c3.038,0,5.5-2.462,5.5-5.5v-25.684c0-5.722,4.435-10.514,10.096-10.91   c13.124-0.919,33.983-0.472,58.83,6.869c2.916,0.863,5.973-0.803,6.833-3.716c0.861-2.913-0.803-5.973-3.716-6.833   c-26.42-7.806-48.687-8.273-62.714-7.293c-11.399,0.798-20.329,10.41-20.329,21.884v25.684   C335.987,132.451,338.449,134.913,341.487,134.913z" fill="#FFFFFF"/>
	<path d="M209.299,117.413v201c0,3.038,2.462,5.5,5.5,5.5s5.5-2.462,5.5-5.5v-201c0-3.038-2.462-5.5-5.5-5.5   S209.299,114.375,209.299,117.413z" fill="#FFFFFF"/>
</g>
<g>
</g>
<g>
</g>
<g>
</g>
<g>
</g>
<g>
</g>
<g>
</g>
<g>
</g>
<g>
</g>
<g>
</g>
<g>
</g>
<g>
</g>
<g>
</g>
<g>
</g>
<g>
</g>
<g>
</g>
</svg>
